<?xml version="1.0" encoding="UTF-8"?>
<svg id="_레이어_1" data-name="레이어 1" xmlns="http://www.w3.org/2000/svg" viewBox="-1 -1 43.22 52.75">
    <defs>
        <style>
            .cls-1 {
            fill: #cf7500;
            }
        </style>
    </defs>
    <path stroke="#cf7500" stroke-width="2" class="cls-1" d="M40.31,30.89c-.4-.52-1.96-2.13-4.17-4.36V3.35c0-1.85-1.5-3.35-3.35-3.35H11.57c-1.84,0-3.35,1.5-3.35,3.35v23.08c-2.29,2.28-6.91,6.94-7.32,7.47-.72.93-1.01,1.91-.88,2.91.21,1.53,1.38,2.47,1.41,2.47.32.36,7.97,8.83,9.6,10.46.74.74,1.54,1.02,2.29,1.02.99,0,1.89-.49,2.44-1.05l6.28-6.5,3.39,3.52c.54.54,1.43,1.02,2.42,1.02.75,0,1.55-.28,2.3-1.02,1.63-1.63,9.28-10.1,9.46-10.33.14-.1,1.35-1.04,1.56-2.6.14-1-.16-1.98-.88-2.91ZM11.57,2.05h21.22c.16,0,.31.04.46.09-1.77,1.69-6.16,5.91-11.04,10.62C17.36,8.02,13,3.78,11.28,2.11c.09-.02.19-.06.29-.06ZM34.09,4.19v20.29c-3.04-3.03-6.79-6.72-10.41-10.27,3.9-3.77,7.65-7.38,10.41-10.02ZM10.28,4c3.03,2.94,6.72,6.54,10.46,10.2-3.63,3.52-7.4,7.18-10.46,10.2V4ZM38.25,34.89c-.08.09-7.94,8.79-9.53,10.39-.77.77-1.47.32-1.79.01l-3.45-3.58-1.42-1.48-9.39-9.74-2.67-2.77-1.25,1.2-.23.22,12.13,12.59-6.32,6.54c-.35.33-1.04.78-1.82,0-1.59-1.59-9.45-10.3-9.67-10.52-.34-.26-1.36-1.23-.29-2.62.3-.39,4.48-4.61,6.17-6.3.49-.49,1.02-1.02,1.6-1.59,3.19-3.16,7.55-7.4,11.91-11.62,4.42,4.33,8.72,8.57,11.84,11.7.57.57,1.09,1.1,1.57,1.58,1.63,1.65,2.76,2.83,3.06,3.22,1.07,1.39.05,2.36-.43,2.75Z"/>
</svg>